<svg xmlns="http://www.w3.org/2000/svg" width="296" height="108" fill="none" viewBox="0 0 296 108">
  <defs/>
  <path fill="url(#paint0_linear)" d="M56.46 52.02H43.5l-6.48 13.44v8.64h-13.8l25.56-51.54H27.42L0 78.54v13.62h37.02v14.34h19.44V92.16h10.56V74.1H56.46V52.02z"/>
  <path fill="url(#paint1_linear)" d="M111.1 21C90.5 21 74.12 37.26 74.12 64.5c0 27.18 16.38 43.5 36.96 43.5 20.64 0 37.02-16.32 37.02-43.5 0-27.24-16.38-43.5-37.02-43.5zm0 18.6c9.47 0 16.8 8.58 16.8 24.9s-7.33 24.9-16.8 24.9c-9.43 0-16.75-8.58-16.75-24.9s7.32-24.9 16.74-24.9z"/>
  <path fill="url(#paint2_linear)" d="M182.51 21c-13.61 0-22.67 5.4-28.97 12.72l11.16 12.66a21.74 21.74 0 0116.98-7.98c6.83 0 11.81 2.94 11.81 8.46 0 5.7-5.64 8.7-12.9 8.7H171v17.1h9.48c7.99 0 14.59 3.06 14.59 8.94 0 6.12-5.82 9-13.03 9-6.78 0-13.07-2.7-17.75-7.56l-11.1 12.66c6.6 7.86 17.03 12.3 29.81 12.3 16.63 0 32.28-7.98 32.28-24.78 0-8.82-5.16-15.48-13.92-19.02 7.69-3.66 12.19-10.2 12.19-18.96C213.53 30.6 200.75 21 182.5 21z"/>
  <path fill="url(#paint3_linear)" d="M283.27 0a12 12 0 0112 12v22.57a12 12 0 01-12 12h-17.1L245.58 63V46.57h-6.3a12 12 0 01-12-12V12a12 12 0 0112-12h44z"/>
  <path fill="#fff" d="M271.41 16.41a2 2 0 00-2.82-2.82l-7.09 7.08-7.09-7.08a2 2 0 10-2.82 2.82l7.08 7.09-7.08 7.09a2 2 0 002.82 2.82l7.09-7.08 7.09 7.08a2 2 0 102.82-2.82l-7.08-7.09 7.08-7.09z"/>
  <defs>
    <linearGradient id="paint0_linear" x1="182.18" x2="208.57" y1="116.61" y2="18.07" gradientUnits="userSpaceOnUse">
      <stop stop-color="#A5A5A5" stop-opacity=".3"/>
      <stop offset="1" stop-color="#C6C6C6" stop-opacity=".3"/>
    </linearGradient>
    <linearGradient id="paint1_linear" x1="182.18" x2="208.57" y1="116.61" y2="18.07" gradientUnits="userSpaceOnUse">
      <stop stop-color="#A5A5A5" stop-opacity=".3"/>
      <stop offset="1" stop-color="#C6C6C6" stop-opacity=".3"/>
    </linearGradient>
    <linearGradient id="paint2_linear" x1="182.18" x2="208.57" y1="116.61" y2="18.07" gradientUnits="userSpaceOnUse">
      <stop stop-color="#A5A5A5" stop-opacity=".3"/>
      <stop offset="1" stop-color="#C6C6C6" stop-opacity=".3"/>
    </linearGradient>
    <linearGradient id="paint3_linear" x1="261.27" x2="261.27" y1="6.32" y2="88.13" gradientUnits="userSpaceOnUse">
      <stop stop-color="#FF7171"/>
      <stop offset="1" stop-color="#E63757"/>
    </linearGradient>
  </defs>
</svg>
