<svg xmlns="http://www.w3.org/2000/svg" width="640" height="480" viewBox="0 0 640 480">
<style type="text/css">
	.st0{fill-rule:evenodd;clip-rule:evenodd;fill:#E73E2D;}
	.st1{fill-rule:evenodd;clip-rule:evenodd;fill:#FEC74A;stroke:#D8AA3F;stroke-width:1.5618;}
	.st2{fill-rule:evenodd;clip-rule:evenodd;fill:#005989;}
	.st3{fill-rule:evenodd;clip-rule:evenodd;fill:#FFFFFF;}
	.st4{fill-rule:evenodd;clip-rule:evenodd;fill:#FFC84B;stroke:#D8AA3F;stroke-width:1.6659;}
	.st5{fill-rule:evenodd;clip-rule:evenodd;fill:#FFC84B;stroke:#D8AA3F;stroke-width:1.5618;stroke-linejoin:round;}
	.st6{fill-rule:evenodd;clip-rule:evenodd;fill:#FFC84B;stroke:#D8AA3F;stroke-width:1.5618;stroke-miterlimit:3.752;}
	.st7{fill:none;stroke:#D9A43E;stroke-width:1.6659;stroke-linecap:round;}
</style>
<path class="st0" d="M0,0h640v287.3H0L0,0z"/>
<path class="st1" d="M272.6,264.5c-18.2-14.2-52.2-9.4-57.8-48.1c26,20.1,21.3-1.2,60.1,18L272.6,264.5z M277.4,246.9
	c-13-19.1-46.8-24.9-40.3-63.5c18.6,27.1,20.6,5.4,51.7,35.6L277.4,246.9z M283.3,234.4c-4.7-22.6-33.7-40.9-12.9-74
	c6.8,32.2,17,12.9,34.2,52.6L283.3,234.4L283.3,234.4z M297,222.8c2.5-23-19.5-49.3,10.4-74.4c-3.4,32.7,12.2,17.5,16.4,60.6
	L297,222.8L297,222.8z M309.1,213.4c11.7-19.9,2.4-52.9,40-63.6c-16.5,28.4,4,20.9-9.9,61.9L309.1,213.4L309.1,213.4z M326.8,215.9
	c17.4-15.2,19.1-49.5,58.1-47.7c-24.7,21.7-2.9,21.1-29,55.6L326.8,215.9L326.8,215.9z M342.2,224.9c21.1-9.4,32.7-41.7,69.6-28.5
	c-30,13.5-8.9,19.3-44.1,44.7L342.2,224.9L342.2,224.9z M355.3,239c22.9-3.1,43.2-30.8,74.8-7.8c-32.6,4.6-14,16-54.9,30.4
	L355.3,239L355.3,239z M436.9,243.4l-105.1,2.3l4.4,28.3L436.9,243.4L436.9,243.4z M421.4,204.8L324,242.1l16.3,31.3L421.4,204.8
	L421.4,204.8z M344.1,263.1l50.4-91.4l-77.3,71.9L344.1,263.1L344.1,263.1z M343.1,255.6L359.3,153l-50.5,91.2L343.1,255.6
	L343.1,255.6z M337,247.3l-16.9-103.4l-18.8,103.8L337,247.3L337,247.3z M328.3,238.4l-49-86.3L298.1,257L328.3,238.4L328.3,238.4z
	 M320.6,237.8l-76.1-64.2l54.1,91.9L320.6,237.8L320.6,237.8z M217.8,205.2l81.7,67.4l12.6-35.3L217.8,205.2L217.8,205.2z
	 M298.6,244.5l-96-1.3l95.6,31.9L298.6,244.5L298.6,244.5z M376.5,261.8c0,31.8-25.8,57.5-57.6,57.5s-57.6-25.8-57.6-57.5
	s25.8-57.5,57.6-57.5S376.5,230,376.5,261.8z"/>
<path class="st2" d="M0,284.4h640V480H0V284.4z"/>
<path class="st3" d="M640,410.1c-27.7-3.5-46.7-21.9-67.8-21.7c-28.5,0.3-39.9,29.3-88.2,29.3c-44.2,0-54.3-29.3-82.8-29.3
	c-27.9,0.2-36.4,31.9-84.7,31.3c-39.4-0.5-54.7-30.2-82.6-30c-29.5,0-60.1,29-92.8,27.6c-45.2-1.9-54.9-27.6-84.5-27.6
	c-17.6,0-36.3,15.3-56.7,21.7v35.9c22.6-6.1,28.7-23.4,60.3-22.4c38.1,1,31.2,27.8,82.8,27.6c42.6-0.1,56.3-32.5,93-28.6
	c27.2-1.4,38.3,30.7,80,31.1c43.3,0.9,59.2-35,86.4-32c28.9,0,38.4,28.9,79,29.1c51.7,0.3,60.8-30.1,93.2-28.1
	c20.7-0.4,37.5,18,65.4,22V410.1z"/>
<path class="st3" d="M484,349.4c-44.2,0-54.3-29.3-82.8-29.3c-27.9,0.2-36.4,31.9-84.7,31.3c-39.4-0.5-54.7-30.2-82.6-30
	c-29.5,0-60.1,29-92.8,27.6C96,347,86.2,321.3,56.7,321.3c-17.6,0-36.3,15.3-56.7,21.7v35.9c22.6-6.1,28.7-23.4,60.3-22.4
	c38.1,1,31.2,27.8,82.8,27.6c42.6-0.1,56.3-32.5,93-28.6c27.2-1.4,38.3,30.7,80,31.1c43.3,0.9,59.2-35,86.4-32
	c28.9,0,38.4,28.9,79,29.1c51.7,0.3,60.8-30.1,93.2-28.1c20.7-0.4,37.5,18,65.4,22v-35.8c-27.7-3.5-46.7-21.9-67.8-21.7
	C543.7,320.3,532.4,349.4,484,349.4z"/>
<path class="st3" d="M0,311.2c22.6-6.1,28.6-23.4,60.2-22.4c38.1,1,31.2,27.8,82.7,27.6c42.5-0.1,56.3-32.5,92.9-28.6
	c27.1-1.4,38.3,30.7,80,31.1c43.3,0.9,59.2-35,86.3-32c28.9,0,38.4,28.9,79,29.1c51.7,0.3,60.8-30.1,93.1-28.1
	c20.9-0.4,37.8,18.3,66,22.1v-35.8c-28.1-3.2-47.2-22-68.4-21.8c-28.5,0.3-39.8,29.3-88.2,29.3c-44.1,0-54.3-29.3-82.8-29.3
	c-27.8,0.2-36.4,31.9-84.6,31.3c-39.3-0.5-54.6-30.2-82.5-30c-29.5,0-60,29-92.7,27.6c-45.1-1.9-54.9-27.6-84.4-27.6
	c-17.6,0-36.2,15.2-56.5,21.6V311.2z"/>
<path class="st4" d="M209.3,71.2c57.3-3.9,46.8-8.8,69.9-12.5c29,4,32.4,21.6,48.5,32.3c0,0-6.1,20.6-26,17.6
	c-2.7-8.2,9.6-10.8-25.8-32.4C255.3,75.1,218.4,80,209.3,71.2L209.3,71.2z M386.8,103l-41.3,1.7v10.2
	C373.4,115.8,378.4,112.1,386.8,103z"/>
<path class="st5" d="M244.9,101.3c7.2-3.7,10.8-2.2,17-2.4c4.3,7.8,8.3,8.5,17.7,9.5c14.3,20.1,34.5,20.4,37.4,20.4
	c28.1-0.7,37-20.4,55.8-22.6h19.9c-3.3-5.7-5.9-8.9-13.1-9.2c-14.8-0.8-34-0.4-50.7,3.4l-23.5,5.8c-6.9-3.3-23.7-20.9-34.5-20.6
	c-6.3,1.7-6.3,3.9-9.5,6.3C255.4,94.5,249.3,93.2,244.9,101.3L244.9,101.3z"/>
<path class="st6" d="M273.3,92.7c0,1.6-1.3,3-3,3c-1.6,0-3-1.3-3-3s1.3-3,3-3C272,89.8,273.3,91.1,273.3,92.7z"/>
<path class="st4" d="M292.5,101.1c42.1-50.8,78.9-44.5,126.9-48c1.6,5.9,1.1,14.7-21.8,22.6c-31.3,4.6-87.4,37.6-87.6,37.6
	C299.5,112.7,292.3,101.8,292.5,101.1L292.5,101.1z"/>
<path class="st7" d="M379.1,68l31.1,1.3 M375.7,73.1l22.7,1.8"/>
</svg>
