<svg width="384" height="216" viewBox="0 0 384 216" fill="none" xmlns="http://www.w3.org/2000/svg">
<path d="M303.059 45H82.9412C79.66 45 77 47.66 77 50.9412V204H309V50.9412C309 47.66 306.34 45 303.059 45Z" fill="url(#paint0_linear)"/>
<path d="M91.5946 58.2544C91.5946 58.2544 87.3014 58.1084 86.416 63.0385V66.3964C86.416 66.3964 86.4527 66.7558 87.429 67.4858C88.4053 68.2157 90.9329 70.2709 91.5946 70.2709C92.2563 70.2709 94.7839 68.2157 95.7602 67.4858C96.7365 66.7558 96.7732 66.3964 96.7732 66.3964V63.0385C95.8875 58.1093 91.5946 58.2544 91.5946 58.2544ZM94.5344 64.8691H88.6548V63.0385C89.2514 60.5903 91.5946 60.5566 91.5946 60.5566C91.5946 60.5566 93.9377 60.5903 94.5344 63.0385V64.8691Z" fill="#383F4E"/>
<path d="M91.5946 71.0278C91.5946 71.0278 90.9292 70.9605 90.4085 70.5863C89.8878 70.2121 86.4165 67.6439 86.4165 67.6439V72.7274C86.4165 72.7274 86.4457 73.3188 87.0749 73.3188H96.1145C96.7437 73.3188 96.7732 72.7274 96.7732 72.7274V67.643C96.7732 67.643 93.3018 70.2109 92.7811 70.5854C92.2604 70.9598 91.5946 71.0278 91.5946 71.0278Z" fill="#383F4E"/>
<path d="M309.445 84.1914H165.558C163.836 84.1914 162.44 85.5871 162.44 87.3087V100.703H309.445V84.1914Z" fill="#39404F"/>
<path d="M244.662 60H164.338C163.047 60 162 61.0467 162 62.338V69.662C162 70.9533 163.047 72 164.338 72H244.662C245.953 72 247 70.9533 247 69.662V62.338C247 61.0467 245.953 60 244.662 60Z" fill="#383F4E"/>
<path d="M147.662 60H102.338C101.047 60 100 61.0467 100 62.338V63.662C100 64.9533 101.047 66 102.338 66H147.662C148.953 66 150 64.9533 150 63.662V62.338C150 61.0467 148.953 60 147.662 60Z" fill="#383F4E"/>
<path d="M130 69H102C100.895 69 100 69.8954 100 71C100 72.1046 100.895 73 102 73H130C131.105 73 132 72.1046 132 71C132 69.8954 131.105 69 130 69Z" fill="#383F4E"/>
<path d="M309 101H162V204H309V101Z" fill="#F4F6F9"/>
<path d="M147.521 84.1914H87.6114C86.3202 84.1914 85.2734 85.2381 85.2734 86.5294V96.2308C85.2734 97.5221 86.3202 98.5688 87.6114 98.5688H147.521C148.813 98.5688 149.859 97.5221 149.859 96.2308V86.5294C149.859 85.2381 148.813 84.1914 147.521 84.1914Z" fill="#657EE4"/>
<path fill-rule="evenodd" clip-rule="evenodd" d="M273.717 59H276.293L276.835 60.7208C277.043 60.794 277.245 60.8789 277.443 60.975L279.04 60.1432L280.866 61.9706L280.035 63.5687C280.131 63.7671 280.216 63.9697 280.289 64.178L282 64.7205V67.2996L280.28 67.8328C280.207 68.0403 280.122 68.2423 280.026 68.4401L280.857 70.0382L279.031 71.8656L277.434 71.0338C277.236 71.13 277.034 71.2149 276.826 71.2882L276.283 73H273.708L273.166 71.2882C272.958 71.2149 272.755 71.13 272.557 71.0338L270.96 71.8656L269.134 70.0382L269.965 68.4401C269.869 68.2417 269.784 68.0391 269.711 67.8308L268 67.2883V64.7117L269.711 64.1692C269.784 63.9609 269.869 63.7583 269.965 63.5599L269.133 61.9606L270.97 60.135L272.566 60.9662C272.764 60.87 272.966 60.7851 273.174 60.7118L273.717 59ZM274.449 60L273.97 61.5103L273.717 61.5863C273.401 61.6814 273.098 61.8085 272.802 61.9688L272.569 62.0951L271.156 61.3596L270.36 62.1515L271.094 63.5625L270.968 63.7957C270.807 64.0924 270.68 64.3948 270.585 64.7118L270.509 64.965L269 65.4437V66.5563L270.509 67.035L270.585 67.2882C270.68 67.6052 270.807 67.9076 270.968 68.2043L271.094 68.4375L270.359 69.8496L271.149 70.6398L272.56 69.9049L272.793 70.0312C273.09 70.1915 273.392 70.3186 273.709 70.4137L273.962 70.4897L274.44 72H275.551L276.03 70.4897L276.283 70.4137C276.599 70.3186 276.902 70.1915 277.198 70.0312L277.431 69.9049L278.842 70.6398L279.632 69.8496L278.898 68.4375L279.024 68.2043C279.184 67.9076 279.311 67.6052 279.406 67.2882L279.482 67.033L281 66.5626V65.4525L279.491 64.9737L279.415 64.7206C279.32 64.4035 279.193 64.1012 279.032 63.8045L278.906 63.5713L279.641 62.1592L278.851 61.369L277.44 62.1039L277.207 61.9776C276.91 61.8173 276.608 61.6902 276.291 61.5951L276.038 61.519L275.559 60H274.449ZM274.996 63.8122C273.789 63.8122 272.81 64.7914 272.81 66C272.81 67.2086 273.789 68.1878 274.996 68.1878C276.203 68.1878 277.182 67.2086 277.182 66C277.182 64.7914 276.203 63.8122 274.996 63.8122ZM271.81 66C271.81 64.2397 273.236 62.8122 274.996 62.8122C276.756 62.8122 278.182 64.2397 278.182 66C278.182 67.7603 276.756 69.1878 274.996 69.1878C273.236 69.1878 271.81 67.7603 271.81 66Z" fill="white"/>
<path d="M113.783 114.385H86.846C85.9848 114.385 85.2734 113.746 85.2734 112.973C85.2734 112.199 85.9848 111.561 86.846 111.561H113.783C114.644 111.561 115.355 112.199 115.355 112.973C115.355 113.746 114.644 114.385 113.783 114.385Z" fill="#475269"/>
<path d="M103.19 125.898H86.846C85.9848 125.898 85.2734 125.259 85.2734 124.486C85.2734 123.712 85.9848 123.073 86.846 123.073H103.19C104.051 123.073 104.762 123.712 104.762 124.486C104.8 125.259 104.088 125.898 103.19 125.898Z" fill="#475269"/>
<path d="M110.983 149.278H86.846C85.9848 149.278 85.2734 148.639 85.2734 147.865C85.2734 147.092 85.9848 146.453 86.846 146.453H110.983C111.844 146.453 112.556 147.092 112.556 147.865C112.593 148.639 111.882 149.278 110.983 149.278Z" fill="#475269"/>
<path d="M271.189 113.45H194.452C193.591 113.45 192.88 112.811 192.88 112.037C192.88 111.264 193.591 110.625 194.452 110.625H271.189C272.05 110.625 272.761 111.264 272.761 112.037C272.799 112.811 272.087 113.45 271.189 113.45Z" fill="#F4F6F9"/>
<path d="M215.254 122.211H194.452C193.591 122.211 192.88 121.572 192.88 120.799C192.88 120.026 193.591 119.387 194.452 119.387H215.254C216.115 119.387 216.826 120.026 216.826 120.799C216.864 121.606 216.152 122.211 215.254 122.211Z" fill="#F4F6F9"/>
<path d="M116.783 137.586H86.846C85.9848 137.586 85.2734 136.947 85.2734 136.174C85.2734 135.401 85.9848 134.762 86.846 134.762H116.783C117.644 134.762 118.355 135.401 118.355 136.174C118.355 136.947 117.644 137.586 116.783 137.586Z" fill="#475269"/>
<path d="M110.71 172.516H86.5725C85.7114 172.516 85 171.877 85 171.104C85 170.33 85.7114 169.691 86.5725 169.691H110.71C111.571 169.691 112.282 170.33 112.282 171.104C112.32 171.877 111.608 172.516 110.71 172.516Z" fill="#475269"/>
<path d="M116.509 160.825H86.5725C85.7114 160.825 85 160.186 85 159.412C85 158.639 85.7114 158 86.5725 158H116.509C117.37 158 118.082 158.639 118.082 159.412C118.082 160.186 117.37 160.825 116.509 160.825Z" fill="#475269"/>
<path d="M110.71 195.516H86.5725C85.7114 195.516 85 194.877 85 194.104C85 193.33 85.7114 192.691 86.5725 192.691H110.71C111.571 192.691 112.282 193.33 112.282 194.104C112.32 194.877 111.608 195.516 110.71 195.516Z" fill="#475269"/>
<path d="M116.509 183.825H86.5725C85.7114 183.825 85 183.186 85 182.412C85 181.639 85.7114 181 86.5725 181H116.509C117.37 181 118.082 181.639 118.082 182.412C118.082 183.186 117.37 183.825 116.509 183.825Z" fill="#475269"/>
<path d="M297.854 73.1234C301.754 73.1234 304.915 69.9618 304.915 66.0617C304.915 62.1616 301.754 59 297.854 59C293.954 59 290.792 62.1616 290.792 66.0617C290.792 69.9618 293.954 73.1234 297.854 73.1234Z" fill="#383F4E"/>
<path d="M297.539 65.4928C298.338 65.4928 298.985 64.8452 298.985 64.0462C298.985 63.2473 298.338 62.5996 297.539 62.5996C296.74 62.5996 296.092 63.2473 296.092 64.0462C296.092 64.8452 296.74 65.4928 297.539 65.4928Z" fill="#1F222A"/>
<path d="M295.513 69.5763C294.646 69.5763 294.067 68.6441 294.485 67.9047C295.063 66.8439 296.221 66.1045 297.507 66.1045C298.792 66.1045 299.95 66.8117 300.528 67.9047C300.946 68.6441 300.368 69.5763 299.5 69.5763H295.513Z" fill="#1F222A"/>
<path d="M182.987 109.016H174.058C172.336 109.016 170.94 110.411 170.94 112.133V121.062C170.94 122.784 172.336 124.179 174.058 124.179H182.987C184.708 124.179 186.104 122.784 186.104 121.062V112.133C186.104 110.411 184.708 109.016 182.987 109.016Z" fill="#F4F6F9"/>
<path d="M252.358 139.022H194.452C193.591 139.022 192.88 138.383 192.88 137.61C192.88 136.836 193.591 136.197 194.452 136.197H252.358C253.219 136.197 253.93 136.836 253.93 137.61C253.968 138.383 253.256 139.022 252.358 139.022Z" fill="#F4F6F9"/>
<path d="M271.747 147.784H194.452C193.591 147.784 192.88 147.145 192.88 146.371C192.88 145.598 193.591 144.959 194.452 144.959H271.747C272.608 144.959 273.32 145.598 273.32 146.371C273.357 147.145 272.646 147.784 271.747 147.784Z" fill="#F4F6F9"/>
<path d="M182.987 134.55H174.058C172.336 134.55 170.94 135.945 170.94 137.667V146.596C170.94 148.318 172.336 149.713 174.058 149.713H182.987C184.708 149.713 186.104 148.318 186.104 146.596V137.667C186.104 135.945 184.708 134.55 182.987 134.55Z" fill="#F4F6F9"/>
<g opacity="0.23" filter="url(#filter0_d)">
<circle cx="274.5" cy="67.5" r="55.5" fill="#1D7EF1"/>
</g>
<circle cx="274.5" cy="66.5" r="29.5" fill="url(#paint1_linear)" fill-opacity="0.5"/>
<defs>
<filter id="filter0_d" x="205" y="9" width="139" height="139" filterUnits="userSpaceOnUse" color-interpolation-filters="sRGB">
<feFlood flood-opacity="0" result="BackgroundImageFix"/>
<feColorMatrix in="SourceAlpha" type="matrix" values="0 0 0 0 0 0 0 0 0 0 0 0 0 0 0 0 0 0 127 0"/>
<feOffset dy="11"/>
<feGaussianBlur stdDeviation="7"/>
<feColorMatrix type="matrix" values="0 0 0 0 0.0862745 0 0 0 0 0.0980392 0 0 0 0 0.117647 0 0 0 1 0"/>
<feBlend mode="normal" in2="BackgroundImageFix" result="effect1_dropShadow"/>
<feBlend mode="normal" in="SourceGraphic" in2="effect1_dropShadow" result="shape"/>
</filter>
<linearGradient id="paint0_linear" x1="199.571" y1="45" x2="199.571" y2="204" gradientUnits="userSpaceOnUse">
<stop stop-color="#13151A"/>
<stop offset="1" stop-color="#394050"/>
</linearGradient>
<linearGradient id="paint1_linear" x1="267.892" y1="47.9913" x2="274.5" y2="96" gradientUnits="userSpaceOnUse">
<stop stop-color="#6FB1FF"/>
<stop offset="1" stop-color="#5AB0FF" stop-opacity="0.44"/>
</linearGradient>
</defs>
</svg>
